<svg width="24" height="24" viewBox="0 0 24 24" fill="none" xmlns="http://www.w3.org/2000/svg">
<path d="M13.1429 5.98186C12.2776 5.23228 11.0082 5.23228 10.1429 5.98186C9.98817 6.10683 9.96194 6.33621 10.0843 6.49421C10.2067 6.65222 10.4313 6.67899 10.586 6.55404C10.592 6.54916 10.5979 6.54408 10.6036 6.53883C11.2032 6.01987 12.0823 6.01987 12.6818 6.53883C12.8349 6.66579 13.0599 6.64195 13.1842 6.48555C13.305 6.33355 13.2868 6.11124 13.1429 5.98186Z" fill="black"/>
<path d="M6.25357 6.53883C6.3177 6.5947 6.39926 6.62535 6.48357 6.62527C6.68082 6.62543 6.84084 6.46225 6.84099 6.26082C6.84108 6.15331 6.79471 6.05124 6.71428 5.98186C5.84895 5.23228 4.57961 5.23228 3.71428 5.98186C3.55957 6.10683 3.53336 6.33621 3.65572 6.49421C3.77808 6.65222 4.00267 6.67899 4.15738 6.55402C4.16341 6.54916 4.16928 6.54408 4.175 6.53883C4.77461 6.01967 5.65395 6.01967 6.25357 6.53883Z" fill="black"/>
<path d="M11.7475 9.22454C11.4875 9.15816 11.2125 9.1939 10.9775 9.32412C9.38498 10.1896 7.47249 10.1896 5.87999 9.32412C5.35998 9.03561 4.70999 9.23219 4.42749 9.76326C4.29999 10.0033 4.26498 10.2841 4.32999 10.5496C4.39998 10.8484 4.58998 11.1011 4.85498 11.2467C7.08499 12.4722 9.77249 12.4722 12.0025 11.2467C12.265 11.1011 12.4575 10.8484 12.5275 10.5496C12.67 9.96497 12.3225 9.37008 11.7475 9.22454ZM11.8325 10.3786C11.8125 10.4731 11.75 10.5573 11.665 10.6033C9.63998 11.6935 7.21748 11.6935 5.19249 10.6033C5.10748 10.5573 5.04498 10.4731 5.02249 10.3786C4.99998 10.2739 5.01749 10.1667 5.07498 10.0773C5.18248 9.92411 5.38498 9.87816 5.54498 9.97007C7.34749 10.9505 9.50998 10.9505 11.3125 9.97007C11.4725 9.87816 11.675 9.92411 11.78 10.0773C11.84 10.1667 11.8575 10.2739 11.8325 10.3786Z" fill="black"/>
<path d="M20.215 8.96672H14.8575V3.86034C14.855 2.85438 14.0575 2.03735 13.0725 2.03735H3.78501C2.80001 2.03735 2.00001 2.85438 2.00001 3.86034V9.43396C1.99751 10.634 2.52252 11.7701 3.43 12.531L5.93 14.6348C6.82751 15.388 8.00251 15.6969 9.14251 15.4799V16.3557C9.14001 17.5531 9.6675 18.6893 10.575 19.4476L13.075 21.5489C14.5275 22.7642 16.6175 22.7642 18.07 21.5489L20.57 19.4476C21.475 18.6893 22.0025 17.5531 22 16.3557V10.7897C22 9.78374 21.2 8.96672 20.215 8.96672ZM12.22 18.1991C12.1075 18.0331 12.1475 17.8059 12.31 17.691C12.32 17.6859 12.3275 17.6808 12.335 17.6757C14.355 16.5676 16.7875 16.5676 18.8075 17.6757C18.9775 17.7778 19.0375 17.9999 18.9375 18.1761C18.935 18.1837 18.93 18.1914 18.925 18.1991C18.8175 18.3523 18.615 18.4008 18.455 18.3089C16.6525 17.3284 14.49 17.3284 12.6875 18.3089C12.5275 18.3982 12.325 18.3523 12.22 18.1991ZM10.4725 14.0731C9.28501 15.0663 7.5725 15.0689 6.385 14.0731L3.885 11.9693C3.14251 11.3463 2.7125 10.4169 2.71501 9.43396V3.86034C2.71501 3.25523 3.19502 2.76502 3.78501 2.76502H13.0725C13.6625 2.76502 14.1425 3.25523 14.1425 3.86034V9.43396C14.145 10.4169 13.715 11.3463 12.9725 11.9693L10.4725 14.0731ZM20.3275 13.4195C20.2 13.5752 19.975 13.5931 19.825 13.4629C19.225 12.9446 18.345 12.9446 17.745 13.4629C17.595 13.5931 17.37 13.5752 17.2425 13.4195C17.115 13.2663 17.135 13.0365 17.285 12.9063C18.1525 12.1582 19.42 12.1582 20.285 12.9063C20.4375 13.0365 20.455 13.2663 20.3275 13.4195Z" fill="black"/>
</svg>
